<?xml version="1.0" standalone="no"?>
<!DOCTYPE svg PUBLIC "-//W3C//DTD SVG 20010904//EN"
 "http://www.w3.org/TR/2001/REC-SVG-20010904/DTD/svg10.dtd">
<svg version="1.0" xmlns="http://www.w3.org/2000/svg"
 width="663.000000pt" height="369.000000pt" viewBox="0 0 663.000000 369.000000"
 preserveAspectRatio="xMidYMid meet">

<g transform="translate(0.000000,369.000000) scale(0.100000,-0.100000)"
fill="#000000" stroke="none">
<path d="M5295 3679 c-255 -24 -518 -147 -704 -329 -571 -558 -449 -1494 247
-1894 176 -102 363 -150 582 -150 326 0 590 108 829 339 373 360 468 915 235
1378 -59 119 -113 196 -203 290 -256 269 -615 403 -986 366z m288 -224 c309
-54 571 -250 707 -530 82 -167 95 -229 94 -440 -1 -286 -15 -306 -165 -241
-149 64 -238 128 -448 324 l-110 102 -242 0 -241 0 -91 -88 c-123 -117 -209
-191 -282 -240 -86 -58 -227 -124 -278 -129 l-44 -5 -12 43 c-7 24 -15 114
-18 200 -4 124 -2 174 12 240 34 170 117 333 235 462 223 243 561 358 883 302z
m-10 -985 c7 0 44 -30 82 -66 112 -105 199 -179 262 -222 64 -43 210 -119 286
-147 26 -10 50 -22 53 -26 7 -11 -46 -88 -113 -166 -110 -127 -298 -243 -478
-295 -69 -20 -102 -23 -245 -23 -141 1 -177 4 -244 23 -173 50 -304 123 -428
240 -80 76 -172 197 -165 216 3 8 23 20 44 26 175 58 364 183 556 369 l67 66
143 5 c78 3 148 5 155 3 8 -2 19 -3 25 -3z"/>
<path d="M581 3163 c0 -10 44 -126 97 -258 l97 -240 44 0 c29 0 47 5 52 15 15
26 189 478 189 489 0 15 -65 14 -77 -1 -6 -7 -41 -96 -78 -198 -38 -102 -72
-189 -77 -195 -13 -14 -19 -1 -93 199 -37 100 -72 187 -77 194 -6 6 -26 12
-44 12 -26 0 -34 -4 -33 -17z"/>
<path d="M1152 3138 c-17 -17 -15 -53 3 -68 38 -31 96 27 65 65 -15 18 -51 20
-68 3z"/>
<path d="M1672 3138 c-17 -17 -15 -53 3 -68 38 -31 96 27 65 65 -15 18 -51 20
-68 3z"/>
<path d="M1880 3046 c0 -49 -2 -55 -22 -58 -18 -2 -24 -11 -26 -34 -3 -26 1
-33 22 -38 23 -6 24 -9 28 -112 3 -102 4 -107 31 -130 32 -28 97 -33 117 -9
17 21 3 55 -23 55 -43 0 -51 15 -55 95 -5 87 4 105 54 105 38 0 48 12 40 45
-5 20 -13 24 -49 27 l-42 3 -3 53 -3 52 -35 0 -34 0 0 -54z"/>
<path d="M1152 2968 c-12 -32 -14 -280 -4 -296 5 -8 22 -12 38 -10 l29 3 0
160 0 160 -27 3 c-22 3 -30 -2 -36 -20z"/>
<path d="M1385 2981 c-37 -16 -60 -51 -60 -91 0 -49 15 -65 83 -90 64 -24 82
-36 82 -56 0 -25 -45 -35 -94 -20 -41 13 -46 12 -61 -5 -21 -22 -12 -37 31
-55 67 -28 159 -10 184 35 17 32 11 78 -12 106 -13 14 -50 36 -83 48 -64 25
-80 48 -45 67 14 8 31 8 58 1 32 -9 39 -8 57 9 18 18 18 21 4 36 -18 18 -115
28 -144 15z"/>
<path d="M1672 2978 c-14 -14 -17 -284 -3 -306 5 -8 21 -12 37 -10 l29 3 0
160 0 160 -25 3 c-14 2 -31 -3 -38 -10z"/>
<path d="M2205 2976 c-42 -18 -83 -69 -91 -112 -23 -125 60 -222 183 -212 52
5 102 30 111 56 5 17 -44 38 -60 24 -13 -10 -44 -15 -89 -13 -28 1 -82 47 -76
65 2 7 52 13 128 16 l124 5 -1 43 c-1 46 -22 82 -67 116 -33 25 -121 32 -162
12z m136 -74 c14 -12 20 -25 16 -36 -6 -14 -19 -16 -84 -14 -83 3 -97 14 -64
47 27 27 99 29 132 3z"/>
<path d="M2802 2974 c-54 -28 -85 -77 -89 -142 -5 -71 24 -126 82 -160 34 -19
49 -22 95 -17 30 4 80 7 110 8 l55 2 0 160 0 160 -30 -1 c-16 -1 -39 -2 -50
-3 -11 -1 -47 1 -80 4 -45 4 -68 1 -93 -11z m149 -83 c23 -23 29 -38 29 -71 0
-79 -76 -123 -148 -86 -39 20 -56 57 -49 103 13 82 109 113 168 54z"/>
<path d="M2384 2330 c-12 -4 -31 -21 -44 -37 -45 -57 1 -143 76 -143 80 0 124
101 69 155 -13 14 -31 25 -39 25 -8 0 -20 2 -28 4 -7 3 -23 1 -34 -4z"/>
<path d="M2835 2320 c-16 -6 -41 -18 -54 -29 -28 -22 -24 -55 12 -96 22 -25
22 -25 63 -9 40 15 43 15 130 -15 100 -35 132 -38 179 -15 69 32 77 63 34 118
-19 24 -20 24 -56 9 -43 -17 -89 -13 -154 16 -56 25 -115 33 -154 21z"/>
<path d="M43 2269 c-10 -10 -13 -112 -13 -441 0 -487 -8 -448 92 -448 83 0 82
-1 88 167 l5 148 96 3 c69 2 99 -1 106 -10 6 -7 32 -75 59 -152 41 -115 53
-140 74 -148 25 -10 136 -5 147 6 3 3 -25 84 -62 181 l-68 174 37 42 c53 58
78 121 78 199 1 82 -24 142 -82 200 -74 74 -106 83 -340 88 -159 3 -208 1
-217 -9z m435 -183 c35 -33 37 -37 37 -99 0 -56 -4 -69 -25 -92 -14 -15 -39
-34 -57 -41 -41 -18 -193 -19 -215 -1 -13 10 -14 32 -10 140 l4 127 114 0 114
0 38 -34z"/>
<path d="M1012 2030 c-104 -22 -183 -86 -230 -189 -38 -80 -38 -202 -1 -281
31 -67 93 -130 157 -161 64 -30 196 -38 275 -15 61 18 156 93 143 114 -4 6
-27 24 -52 38 l-45 27 -51 -28 c-60 -33 -154 -38 -205 -12 -39 20 -83 72 -83
98 0 18 10 19 235 19 l235 0 11 28 c14 34 -3 138 -32 194 -66 129 -212 198
-357 168z m159 -153 c35 -24 79 -81 79 -103 0 -11 -33 -14 -165 -14 l-165 0 0
24 c0 31 43 83 84 101 51 22 128 19 167 -8z"/>
<path d="M1743 2030 c-89 -18 -160 -76 -205 -168 -30 -59 -33 -76 -33 -152 0
-71 4 -94 26 -141 48 -102 138 -166 248 -176 81 -8 121 2 182 43 62 41 73 34
64 -41 -7 -54 -32 -103 -63 -122 -72 -44 -168 -38 -245 15 l-51 35 -45 -25
c-69 -38 -72 -50 -27 -97 64 -65 123 -86 246 -86 92 0 112 3 160 26 77 36 115
71 147 137 l28 57 3 330 c4 379 10 358 -85 353 -55 -3 -58 -4 -61 -30 -4 -35
-11 -35 -68 1 -43 28 -123 52 -162 50 -9 -1 -36 -5 -59 -9z m149 -140 c45 -13
93 -52 114 -93 9 -17 16 -55 16 -89 0 -106 -74 -178 -182 -178 -83 0 -144 40
-175 113 -43 103 12 214 123 247 38 12 61 11 104 0z"/>
<path d="M2880 2031 c-86 -18 -171 -86 -218 -176 -23 -44 -26 -62 -27 -150 0
-119 17 -166 90 -244 65 -69 127 -94 225 -89 66 3 84 8 129 36 62 38 69 39 73
10 2 -19 12 -25 51 -32 30 -6 58 -6 75 0 l27 9 3 290 c1 160 0 300 -3 313 -5
20 -11 22 -71 22 -64 0 -66 -1 -77 -30 -6 -16 -14 -30 -17 -30 -3 0 -21 11
-40 25 -54 40 -150 60 -220 46z m163 -155 c18 -7 44 -26 59 -42 76 -82 61
-229 -30 -288 -161 -106 -354 63 -273 239 20 44 41 66 86 89 37 20 115 21 158
2z"/>
<path d="M3703 2030 c-98 -20 -186 -92 -232 -189 -22 -47 -26 -70 -26 -141 0
-73 4 -93 28 -142 35 -71 119 -150 183 -172 63 -21 176 -21 238 1 67 24 148
100 183 171 24 50 28 69 28 147 0 79 -4 97 -28 143 -73 138 -225 213 -374 182z
m177 -174 c62 -41 94 -138 70 -210 -26 -80 -90 -126 -175 -126 -88 0 -153 49
-176 133 -24 90 32 201 114 226 49 15 125 5 167 -23z"/>
<path d="M2345 2007 c-3 -7 -4 -147 -3 -312 l3 -300 48 -9 c30 -6 58 -6 75 0
l27 9 3 299 c2 212 -1 303 -9 312 -15 18 -138 19 -144 1z"/>
<path d="M3624 968 c-51 -55 -104 -124 -104 -137 0 -7 25 -11 73 -11 65 0 76
3 97 25 13 14 29 25 35 25 6 0 22 -11 35 -25 21 -22 32 -25 92 -25 44 0 68 4
68 11 0 16 -108 147 -131 159 -10 6 -44 10 -76 10 -54 0 -62 -3 -89 -32z"/>
<path d="M4945 978 c-15 -14 -28 -38 -32 -60 -5 -32 -1 -41 25 -68 62 -61 162
-25 162 59 0 78 -95 120 -155 69z"/>
<path d="M2345 968 c-3 -7 -4 -215 -3 -463 l3 -450 66 -3 c47 -2 69 1 78 11 8
11 11 132 9 463 l-3 449 -73 3 c-52 2 -74 -1 -77 -10z"/>
<path d="M735 891 c-3 -5 10 -51 29 -103 18 -51 84 -230 145 -397 61 -167 111
-305 111 -307 0 -1 7 -10 16 -18 12 -12 36 -16 102 -16 48 0 93 4 99 8 7 4 62
143 122 307 60 165 128 349 150 409 23 61 38 113 33 118 -5 5 -44 8 -88 6
l-79 -3 -107 -304 c-58 -167 -111 -308 -117 -314 -8 -8 -14 -8 -22 0 -5 5 -48
118 -95 249 -46 131 -96 269 -110 307 l-26 67 -78 0 c-43 0 -81 -4 -85 -9z"/>
<path d="M2854 689 c-49 -14 -125 -69 -161 -117 -72 -94 -84 -258 -27 -362 64
-117 197 -190 322 -176 105 12 249 105 240 154 -2 10 -27 30 -55 45 l-52 28
-52 -36 c-43 -29 -60 -35 -106 -35 -64 0 -99 16 -141 64 -35 40 -47 88 -38
149 15 93 81 147 179 147 46 0 63 -6 106 -36 l52 -35 43 25 c63 37 72 51 52
80 -23 36 -78 75 -136 97 -54 20 -169 25 -226 8z"/>
<path d="M3523 674 c-137 -68 -209 -236 -169 -394 26 -102 79 -171 166 -215
94 -47 185 -44 276 11 32 19 58 33 58 32 1 -2 7 -16 14 -31 12 -27 14 -28 79
-25 l68 3 3 304 c2 216 -1 308 -9 317 -12 14 -93 19 -123 8 -9 -3 -16 -17 -16
-30 0 -30 -16 -30 -60 -1 -83 56 -201 64 -287 21z m261 -144 c64 -44 96 -134
76 -210 -14 -52 -71 -115 -117 -131 -84 -28 -193 13 -227 86 -22 46 -24 142
-3 181 19 36 64 80 97 93 43 18 134 8 174 -19z"/>
<path d="M4436 680 c-22 -11 -47 -27 -56 -35 -22 -20 -30 -19 -30 5 0 25 -29
40 -80 40 -84 0 -80 18 -80 -319 0 -245 3 -301 14 -310 9 -7 40 -11 78 -9 l63
3 5 210 c5 230 10 249 71 281 34 17 108 18 143 2 56 -25 61 -45 66 -278 l5
-215 63 -3 c98 -5 95 -14 90 243 -4 236 -9 260 -63 331 -54 71 -200 98 -289
54z"/>
<path d="M5444 689 c-49 -14 -125 -69 -161 -117 -46 -60 -67 -138 -61 -226 8
-126 76 -230 187 -283 46 -22 70 -27 136 -28 71 0 88 4 147 33 65 32 128 89
128 116 0 16 -11 25 -66 56 l-41 22 -53 -36 c-45 -31 -60 -36 -108 -36 -143 0
-227 142 -159 271 31 59 84 89 158 89 49 0 64 -5 108 -35 51 -35 52 -35 84
-19 79 40 85 70 28 125 -55 52 -134 79 -224 78 -40 0 -86 -5 -103 -10z"/>
<path d="M6113 674 c-64 -31 -117 -89 -151 -163 -21 -45 -26 -71 -27 -136 0
-101 24 -171 84 -237 102 -114 242 -137 367 -62 32 19 58 33 58 32 1 -2 7 -15
14 -30 11 -27 15 -28 81 -28 57 0 70 3 73 17 2 9 1 152 -2 317 l-5 301 -49 3
c-72 5 -96 -4 -96 -33 0 -30 -18 -32 -51 -6 -74 58 -208 70 -296 25z m262
-145 c50 -35 77 -89 78 -157 1 -111 -76 -192 -183 -192 -71 0 -133 39 -167
104 -20 39 -20 133 0 171 19 37 64 80 97 94 41 18 136 6 175 -20z"/>
<path d="M1643 683 l-33 -4 0 -226 c0 -246 5 -281 52 -338 46 -55 100 -79 183
-79 73 0 117 16 162 57 24 21 22 23 38 -28 6 -19 125 -21 143 -3 9 9 12 91 12
310 0 336 4 318 -80 318 -81 0 -80 4 -80 -211 0 -213 -7 -246 -64 -280 -38
-23 -115 -25 -156 -4 -55 28 -60 53 -60 275 l0 200 -26 10 c-25 10 -32 10 -91
3z"/>
<path d="M4941 676 c-8 -9 -11 -101 -9 -317 l3 -304 63 -3 c38 -2 69 2 78 9
11 9 14 64 14 305 0 253 -2 295 -16 308 -20 20 -117 22 -133 2z"/>
</g>
</svg>
